<svg xmlns="http://www.w3.org/2000/svg" viewBox="0 0 900 900" fill="none">
<circle cx="450" cy="450" r="60" stroke="#C9A227" stroke-opacity="0.500" stroke-width="0.8"/><circle cx="450" cy="450" r="75" stroke="#C9A227" stroke-opacity="0.486" stroke-width="0.8"/><circle cx="450" cy="450" r="90" stroke="#C9A227" stroke-opacity="0.472" stroke-width="0.8"/><circle cx="450" cy="450" r="105" stroke="#C9A227" stroke-opacity="0.458" stroke-width="0.8"/><circle cx="450" cy="450" r="120" stroke="#C9A227" stroke-opacity="0.444" stroke-width="0.8"/><circle cx="450" cy="450" r="135" stroke="#C9A227" stroke-opacity="0.430" stroke-width="0.8"/><circle cx="450" cy="450" r="150" stroke="#C9A227" stroke-opacity="0.416" stroke-width="0.8"/><circle cx="450" cy="450" r="165" stroke="#C9A227" stroke-opacity="0.402" stroke-width="0.8"/><circle cx="450" cy="450" r="180" stroke="#C9A227" stroke-opacity="0.388" stroke-width="0.8"/><circle cx="450" cy="450" r="195" stroke="#C9A227" stroke-opacity="0.374" stroke-width="0.8"/><circle cx="450" cy="450" r="210" stroke="#C9A227" stroke-opacity="0.360" stroke-width="0.8"/><circle cx="450" cy="450" r="225" stroke="#C9A227" stroke-opacity="0.346" stroke-width="0.8"/><circle cx="450" cy="450" r="240" stroke="#C9A227" stroke-opacity="0.332" stroke-width="0.8"/><circle cx="450" cy="450" r="255" stroke="#C9A227" stroke-opacity="0.318" stroke-width="0.8"/><circle cx="450" cy="450" r="270" stroke="#C9A227" stroke-opacity="0.304" stroke-width="0.8"/><circle cx="450" cy="450" r="285" stroke="#C9A227" stroke-opacity="0.290" stroke-width="0.8"/><circle cx="450" cy="450" r="300" stroke="#C9A227" stroke-opacity="0.276" stroke-width="0.8"/><circle cx="450" cy="450" r="315" stroke="#C9A227" stroke-opacity="0.262" stroke-width="0.8"/><circle cx="450" cy="450" r="330" stroke="#C9A227" stroke-opacity="0.248" stroke-width="0.8"/><circle cx="450" cy="450" r="345" stroke="#C9A227" stroke-opacity="0.234" stroke-width="0.8"/><circle cx="450" cy="450" r="360" stroke="#C9A227" stroke-opacity="0.220" stroke-width="0.8"/><circle cx="450" cy="450" r="375" stroke="#C9A227" stroke-opacity="0.206" stroke-width="0.8"/><circle cx="450" cy="450" r="390" stroke="#C9A227" stroke-opacity="0.192" stroke-width="0.8"/><circle cx="450" cy="450" r="405" stroke="#C9A227" stroke-opacity="0.178" stroke-width="0.8"/><circle cx="450" cy="450" r="420" stroke="#C9A227" stroke-opacity="0.164" stroke-width="0.8"/><circle cx="450" cy="450" r="435" stroke="#C9A227" stroke-opacity="0.150" stroke-width="0.8"/><circle cx="450" cy="450" r="450" stroke="#C9A227" stroke-opacity="0.136" stroke-width="0.8"/><circle cx="450" cy="450" r="465" stroke="#C9A227" stroke-opacity="0.122" stroke-width="0.8"/>
<ellipse cx="450" cy="450" rx="420" ry="140" stroke="#C9A227" stroke-opacity="0.12" stroke-width="0.7" transform="rotate(0 450 450)"/><ellipse cx="450" cy="450" rx="420" ry="140" stroke="#C9A227" stroke-opacity="0.12" stroke-width="0.7" transform="rotate(30 450 450)"/><ellipse cx="450" cy="450" rx="420" ry="140" stroke="#C9A227" stroke-opacity="0.12" stroke-width="0.7" transform="rotate(60 450 450)"/><ellipse cx="450" cy="450" rx="420" ry="140" stroke="#C9A227" stroke-opacity="0.12" stroke-width="0.7" transform="rotate(90 450 450)"/><ellipse cx="450" cy="450" rx="420" ry="140" stroke="#C9A227" stroke-opacity="0.12" stroke-width="0.7" transform="rotate(120 450 450)"/><ellipse cx="450" cy="450" rx="420" ry="140" stroke="#C9A227" stroke-opacity="0.12" stroke-width="0.7" transform="rotate(150 450 450)"/><ellipse cx="450" cy="450" rx="420" ry="140" stroke="#C9A227" stroke-opacity="0.12" stroke-width="0.7" transform="rotate(180 450 450)"/><ellipse cx="450" cy="450" rx="420" ry="140" stroke="#C9A227" stroke-opacity="0.12" stroke-width="0.7" transform="rotate(210 450 450)"/><ellipse cx="450" cy="450" rx="420" ry="140" stroke="#C9A227" stroke-opacity="0.12" stroke-width="0.7" transform="rotate(240 450 450)"/><ellipse cx="450" cy="450" rx="420" ry="140" stroke="#C9A227" stroke-opacity="0.12" stroke-width="0.7" transform="rotate(270 450 450)"/><ellipse cx="450" cy="450" rx="420" ry="140" stroke="#C9A227" stroke-opacity="0.12" stroke-width="0.7" transform="rotate(300 450 450)"/><ellipse cx="450" cy="450" rx="420" ry="140" stroke="#C9A227" stroke-opacity="0.12" stroke-width="0.7" transform="rotate(330 450 450)"/>
</svg>