<svg xmlns="http://www.w3.org/2000/svg" viewBox="0 0 1200 630">
<rect width="1200" height="630" fill="#0E1B2A"/>
<g opacity="0.4" transform="translate(700 40) scale(0.9)"><circle cx="300" cy="300" r="60" stroke="#C9A227" stroke-opacity="0.45" stroke-width="1" fill="none"/><circle cx="300" cy="300" r="76" stroke="#C9A227" stroke-opacity="0.43" stroke-width="1" fill="none"/><circle cx="300" cy="300" r="92" stroke="#C9A227" stroke-opacity="0.41" stroke-width="1" fill="none"/><circle cx="300" cy="300" r="108" stroke="#C9A227" stroke-opacity="0.39" stroke-width="1" fill="none"/><circle cx="300" cy="300" r="124" stroke="#C9A227" stroke-opacity="0.37" stroke-width="1" fill="none"/><circle cx="300" cy="300" r="140" stroke="#C9A227" stroke-opacity="0.35" stroke-width="1" fill="none"/><circle cx="300" cy="300" r="156" stroke="#C9A227" stroke-opacity="0.33" stroke-width="1" fill="none"/><circle cx="300" cy="300" r="172" stroke="#C9A227" stroke-opacity="0.31" stroke-width="1" fill="none"/><circle cx="300" cy="300" r="188" stroke="#C9A227" stroke-opacity="0.29" stroke-width="1" fill="none"/><circle cx="300" cy="300" r="204" stroke="#C9A227" stroke-opacity="0.27" stroke-width="1" fill="none"/><circle cx="300" cy="300" r="220" stroke="#C9A227" stroke-opacity="0.25" stroke-width="1" fill="none"/><circle cx="300" cy="300" r="236" stroke="#C9A227" stroke-opacity="0.23" stroke-width="1" fill="none"/><circle cx="300" cy="300" r="252" stroke="#C9A227" stroke-opacity="0.21" stroke-width="1" fill="none"/><circle cx="300" cy="300" r="268" stroke="#C9A227" stroke-opacity="0.19" stroke-width="1" fill="none"/><circle cx="300" cy="300" r="284" stroke="#C9A227" stroke-opacity="0.17" stroke-width="1" fill="none"/><circle cx="300" cy="300" r="300" stroke="#C9A227" stroke-opacity="0.15" stroke-width="1" fill="none"/><circle cx="300" cy="300" r="316" stroke="#C9A227" stroke-opacity="0.13" stroke-width="1" fill="none"/><circle cx="300" cy="300" r="332" stroke="#C9A227" stroke-opacity="0.11" stroke-width="1" fill="none"/><circle cx="300" cy="300" r="348" stroke="#C9A227" stroke-opacity="0.09" stroke-width="1" fill="none"/><circle cx="300" cy="300" r="364" stroke="#C9A227" stroke-opacity="0.07" stroke-width="1" fill="none"/></g>

<g transform="translate(90 300) rotate(-7)" opacity="1">
<rect width="380" height="190" rx="10" fill="#7FBF8E"/>
<rect x="6" y="6" width="368" height="178" rx="7" fill="none" stroke="#0E1B2A" stroke-opacity="0.25" stroke-width="1.5"/>
<circle cx="273.59999999999997" cy="95" r="60.800000000000004" fill="none" stroke="#0E1B2A" stroke-opacity="0.3" stroke-width="2"/>
<text x="273.59999999999997" y="119.7" font-family="Arial" font-size="68.39999999999999" font-weight="900" fill="#0E1B2A" fill-opacity="0.55" text-anchor="middle">$100</text>
<text x="18" y="53.2" font-family="Arial" font-size="24.7" font-weight="800" fill="#0E1B2A" fill-opacity="0.6">PROP NOTE</text>
<text x="18" y="167.2" font-family="Arial" font-size="17.099999999999998" font-weight="700" fill="#0E1B2A" fill-opacity="0.5">FOR MOTION PICTURE USE ONLY</text>
<rect x="159.6" y="10" width="19" height="170" rx="4" fill="#0E1B2A" opacity="0.12"/>
</g>
<text x="90" y="150" font-family="Arial" font-size="64" font-weight="900" fill="#F7F5F0">Aussie Prop Notes</text>
<text x="90" y="215" font-family="Arial" font-size="30" fill="#C9A227">Camera-Ready Prop Money. Australia-Wide.</text>
</svg>